# xmcd
#
# Track frame offsets:
#	150
#	12929
#	29350
#	41354
#	53185
#	63871
#	77353
#	97301
#	107042
#	118629
#	131172
#	140937
#	155422
#	165566
#	181747
#
# Disc length: 2625 seconds
# Revision: 0
# Processed by: cddbd v1.5.2PL0 Copyright (c) Steve Scherf et al.
# Submitted via: dBpowerAMP V12.0
#
DISCID=c50a3f0f
DTITLE=ShoreGrass - In Connecticut
DYEAR=2001
DGENRE=Bluegrass
TTITLE0=Six Wild Roses
TTITLE1=Lonely Tombs
TTITLE2=Connecticut Waltz
TTITLE3=Man in the Middle
TTITLE4=One More Miner
TTITLE5=Last Old Shovel
TTITLE6=Against the Tide
TTITLE7=Jordan
TTITLE8=Sing Away the Sorries
TTITLE9=Keep on the Sunnyside
TTITLE10=A Waltz for You
TTITLE11=Cajun Rock
TTITLE12=Old Man at the Mill
TTITLE13=I Can't Go Home
TTITLE14=Tear My Stillhouse Down
EXTD=
EXTT0=
EXTT1=
EXTT2=
EXTT3=
EXTT4=
EXTT5=
EXTT6=
EXTT7=
EXTT8=
EXTT9=
EXTT10=
EXTT11=
EXTT12=
EXTT13=
EXTT14=
PLAYORDER=
